<svg width="23" height="20" viewBox="0 0 23 20" fill="none" xmlns="http://www.w3.org/2000/svg">
<path d="M1.23633 1H4.95787L7.45131 12.4771C7.53639 12.8718 7.76942 13.2263 8.1096 13.4785C8.44979 13.7308 8.87545 13.8649 9.31208 13.8571H18.3554C18.7921 13.8649 19.2177 13.7308 19.5579 13.4785C19.8981 13.2263 20.1311 12.8718 20.2162 12.4771L21.7048 5.28571H5.88826M9.60981 18.1429C9.60981 18.6162 9.19326 19 8.67942 19C8.16558 19 7.74903 18.6162 7.74903 18.1429C7.74903 17.6695 8.16558 17.2857 8.67942 17.2857C9.19326 17.2857 9.60981 17.6695 9.60981 18.1429ZM19.8441 18.1429C19.8441 18.6162 19.4275 19 18.9137 19C18.3998 19 17.9833 18.6162 17.9833 18.1429C17.9833 17.6695 18.3998 17.2857 18.9137 17.2857C19.4275 17.2857 19.8441 17.6695 19.8441 18.1429Z" stroke="#151C22" stroke-width="2" stroke-linecap="round" stroke-linejoin="round"/>
</svg>
