<svg width="21" height="20" viewBox="0 0 21 20" fill="none" xmlns="http://www.w3.org/2000/svg">
<path d="M10.4374 0C13.218 0 13.565 0.00999994 14.6559 0.0599999C15.7459 0.11 16.4879 0.277 17.1408 0.525C17.8163 0.779 18.3853 1.123 18.9543 1.678C19.4747 2.1779 19.8774 2.78259 20.1343 3.45C20.3871 4.087 20.5591 4.813 20.6102 5.878C20.6583 6.944 20.6716 7.283 20.6716 10C20.6716 12.717 20.6614 13.056 20.6102 14.122C20.5591 15.187 20.3871 15.912 20.1343 16.55C19.8781 17.2178 19.4754 17.8226 18.9543 18.322C18.4426 18.8303 17.8238 19.2238 17.1408 19.475C16.4889 19.722 15.7459 19.89 14.6559 19.94C13.565 19.987 13.218 20 10.4374 20C7.65673 20 7.30979 19.99 6.21882 19.94C5.12887 19.89 4.38689 19.722 3.73394 19.475C3.05063 19.2245 2.43166 18.8309 1.92043 18.322C1.39993 17.8222 0.997233 17.2175 0.740423 16.55C0.486614 15.913 0.315702 15.187 0.26453 14.122C0.216429 13.056 0.203125 12.717 0.203125 10C0.203125 7.283 0.213359 6.944 0.26453 5.878C0.315702 4.812 0.486614 4.088 0.740423 3.45C0.996521 2.78218 1.39931 2.17732 1.92043 1.678C2.43181 1.16923 3.05073 0.775729 3.73394 0.525C4.38689 0.277 5.12785 0.11 6.21882 0.0599999C7.30979 0.0129999 7.65673 0 10.4374 0ZM10.4374 5C9.08023 5 7.77867 5.52678 6.81902 6.46447C5.85938 7.40215 5.32025 8.67392 5.32025 10C5.32025 11.3261 5.85938 12.5979 6.81902 13.5355C7.77867 14.4732 9.08023 15 10.4374 15C11.7945 15 13.0961 14.4732 14.0557 13.5355C15.0154 12.5979 15.5545 11.3261 15.5545 10C15.5545 8.67392 15.0154 7.40215 14.0557 6.46447C13.0961 5.52678 11.7945 5 10.4374 5ZM17.0896 4.75C17.0896 4.41848 16.9549 4.10054 16.715 3.86612C16.475 3.6317 16.1496 3.5 15.8104 3.5C15.4711 3.5 15.1457 3.6317 14.9058 3.86612C14.6659 4.10054 14.5311 4.41848 14.5311 4.75C14.5311 5.08152 14.6659 5.39946 14.9058 5.63388C15.1457 5.8683 15.4711 6 15.8104 6C16.1496 6 16.475 5.8683 16.715 5.63388C16.9549 5.39946 17.0896 5.08152 17.0896 4.75ZM10.4374 7C11.2517 7 12.0326 7.31607 12.6084 7.87868C13.1842 8.44129 13.5077 9.20435 13.5077 10C13.5077 10.7956 13.1842 11.5587 12.6084 12.1213C12.0326 12.6839 11.2517 13 10.4374 13C9.62309 13 8.84215 12.6839 8.26637 12.1213C7.69058 11.5587 7.3671 10.7956 7.3671 10C7.3671 9.20435 7.69058 8.44129 8.26637 7.87868C8.84215 7.31607 9.62309 7 10.4374 7Z" fill="white"/>
</svg>
