<svg width="22" height="21" viewBox="0 0 22 21" fill="none" xmlns="http://www.w3.org/2000/svg">
<path d="M12.5585 0.0940773C10.0077 -0.235069 7.41609 0.31263 5.26218 1.63604C3.10828 2.95945 1.53758 4.96919 0.840104 7.29417C0.142633 9.61914 0.3655 12.1023 1.46755 14.2852C2.56961 16.468 4.47641 18.2032 6.83588 19.1701C6.77208 18.4019 6.83064 17.6291 7.00965 16.8771C7.20687 16.0381 8.39128 11.4141 8.39128 11.4141C8.15543 10.9182 8.03756 10.3801 8.04587 9.83711C8.04587 8.3521 8.95949 7.2441 10.0959 7.2441C10.3001 7.24131 10.5025 7.27979 10.6894 7.35693C10.8763 7.43407 11.0433 7.54805 11.179 7.69112C11.3147 7.8342 11.416 8.00302 11.476 8.18609C11.536 8.36917 11.5532 8.56222 11.5266 8.7521C11.5266 9.65211 10.9104 11.0141 10.5884 12.2921C10.5248 12.5265 10.5208 12.7716 10.5767 13.0077C10.6325 13.2438 10.7468 13.4643 10.9101 13.6515C11.0735 13.8386 11.2815 13.9871 11.5172 14.085C11.753 14.1829 12.01 14.2275 12.2675 14.2151C14.2909 14.2151 15.6469 11.7841 15.6469 8.9141C15.6469 6.7141 14.0937 5.06609 11.2302 5.06609C10.5451 5.04112 9.86179 5.14702 9.22167 5.37735C8.58155 5.60768 7.99802 5.95764 7.50649 6.40599C7.01497 6.85433 6.62571 7.3917 6.36236 7.98548C6.09901 8.57925 5.96705 9.21703 5.9745 9.86011C5.94398 10.5734 6.18932 11.2731 6.66531 11.8301C6.75426 11.8924 6.8192 11.9801 6.85035 12.08C6.88151 12.18 6.87717 12.2867 6.83801 12.3841C6.78898 12.5681 6.66531 13.0071 6.61627 13.1681C6.60607 13.2227 6.58234 13.2743 6.547 13.3187C6.51166 13.3632 6.46569 13.3992 6.41279 13.4239C6.3599 13.4486 6.30155 13.4613 6.24246 13.461C6.18337 13.4607 6.12518 13.4474 6.07258 13.4221C4.59714 12.8681 3.90206 11.3451 3.90206 9.60611C3.90206 6.7591 6.44357 3.35109 11.5287 3.35109C15.5755 3.35109 18.2663 6.1281 18.2663 9.09811C18.2663 13.0071 15.9454 15.9461 12.5159 15.9461C12.0033 15.9615 11.4949 15.8554 11.0376 15.6376C10.5803 15.4198 10.189 15.0974 9.89976 14.7001C9.89976 14.7001 9.28357 17.0161 9.16204 17.4541C8.91396 18.2108 8.54789 18.9289 8.07572 19.5851C9.0597 19.8651 10.0821 20.0051 11.1097 20.0011C12.5101 20.0022 13.8969 19.7441 15.1908 19.2417C16.4847 18.7393 17.6603 18.0024 18.6501 17.0732C19.64 16.1441 20.4247 15.0409 20.9594 13.8268C21.4941 12.6128 21.7683 11.3117 21.7662 9.99811C21.7648 7.5831 20.8321 5.25009 19.14 3.42987C17.448 1.60965 15.1111 0.425143 12.5607 0.0950772L12.5585 0.0940773Z" fill="white"/>
</svg>
