<svg width="22" height="18" viewBox="0 0 22 18" fill="none" xmlns="http://www.w3.org/2000/svg">
<path d="M21.1574 2.65593C20.376 2.99362 19.5475 3.2154 18.6991 3.31393C19.5933 2.79136 20.2626 1.96894 20.5822 0.999927C19.743 1.48793 18.8229 1.82993 17.864 2.01493C17.2198 1.34151 16.3661 0.89489 15.4353 0.744511C14.5046 0.594133 13.5492 0.748418 12.7174 1.18338C11.8857 1.61834 11.2244 2.30961 10.8362 3.14972C10.4481 3.98983 10.3548 4.93171 10.571 5.82894C8.8692 5.74559 7.20431 5.31346 5.68448 4.5606C4.16465 3.80774 2.82384 2.75098 1.74912 1.45893C1.3687 2.09738 1.16879 2.82316 1.16986 3.56193C1.16986 5.01193 1.92515 6.29294 3.07343 7.04294C2.39388 7.02204 1.72929 6.84272 1.13506 6.51994V6.57194C1.13527 7.53764 1.47726 8.47356 2.10307 9.221C2.72887 9.96845 3.59996 10.4814 4.56865 10.6729C3.93783 10.84 3.27638 10.8646 2.63438 10.7449C2.9075 11.5762 3.43982 12.3031 4.15682 12.8241C4.87382 13.345 5.73958 13.6337 6.6329 13.65C5.74506 14.3313 4.72849 14.8349 3.64131 15.1321C2.55413 15.4293 1.41766 15.5142 0.296875 15.382C2.25336 16.6114 4.53089 17.2641 6.85703 17.262C14.7302 17.262 19.0358 10.8889 19.0358 5.36194C19.0358 5.18194 19.0307 4.99993 19.0225 4.82193C19.8605 4.2301 20.5838 3.49695 21.1584 2.65693L21.1574 2.65593Z" fill="white"/>
</svg>
